name analog
datacolumns 19
datarows 29
range 0.451 0.465
endheader
time	ground_force_vx	ground_force_vy	ground_force_vz	ground_force_px	ground_force_py	ground_force_pz	l_ground_force_vx	l_ground_force_vy	l_ground_force_vz	l_ground_force_px	l_ground_force_py	l_ground_force_pz	ground_torque_x	ground_torque_y	ground_torque_z	l_ground_torque_x	l_ground_torque_y	l_ground_torque_z
0.451	-0.0	-0.0	-0.0	-0.0	-0.0	-0.0	-11.072134017944336	3.02213716506958	-881.74951171875	-0.0	-0.0	-0.0	-0.0	-0.0	-0.0	249804.875	5312.60009765625	-3839.35693359375
0.4515	-0.0	-0.0	-0.0	-0.0	-0.0	-0.0	-11.213632583618164	2.7544636726379395	-878.1279296875	-0.0	-0.0	-0.0	-0.0	-0.0	-0.0	248989.828125	4918.3740234375	-4030.507080078125
0.452	-0.0	-0.0	-0.0	-0.0	-0.0	-0.0	-11.088848114013672	2.8066954612731934	-876.0213623046875	-0.0	-0.0	-0.0	-0.0	-0.0	-0.0	248098.15625	4497.93310546875	-4071.14697265625
0.4525	-0.0	-0.0	-0.0	-0.0	-0.0	-0.0	-9.810723304748535	2.9832139015197754	-871.3536987304688	-0.0	-0.0	-0.0	-0.0	-0.0	-0.0	246830.75	3705.706298828125	-3649.4248046875
0.453	-0.0	-0.0	-0.0	-0.0	-0.0	-0.0	-7.842797756195068	2.914615631103516	-868.8956909179688	-0.0	-0.0	-0.0	-0.0	-0.0	-0.0	246355.796875	2857.015625	-3155.92529296875
0.4535	-0.0	-0.0	-0.0	-0.0	-0.0	-0.0	-6.371046543121338	2.5653421878814697	-867.8639526367188	-0.0	-0.0	-0.0	-0.0	-0.0	-0.0	245891.125	2152.7255859375	-2734.319091796875
0.454	-0.0	-0.0	-0.0	-0.0	-0.0	-0.0	-6.0323333740234375	2.4889495372772217	-865.7529296875	-0.0	-0.0	-0.0	-0.0	-0.0	-0.0	245821.6875	2062.546875	-2668.067138671875
0.4545	-0.0	-0.0	-0.0	-0.0	-0.0	-0.0	-5.943622589111328	3.507718324661255	-865.2161865234375	-0.0	-0.0	-0.0	-0.0	-0.0	-0.0	245639.6875	1786.9058837890625	-2666.22412109375
0.455	-0.0	-0.0	-0.0	-0.0	-0.0	-0.0	-6.627718925476074	4.218846321105957	-864.6236572265625	-0.0	-0.0	-0.0	-0.0	-0.0	-0.0	245887.6875	1865.2451171875	-2755.480712890625
0.4555	-0.0	-0.0	-0.0	-0.0	-0.0	-0.0	-7.4517059326171875	4.64992618560791	-865.4853515625	-0.0	-0.0	-0.0	-0.0	-0.0	-0.0	246516.875	1809.602294921875	-2970.522705078125
0.456	-0.0	-0.0	-0.0	-0.0	-0.0	-0.0	-8.176904678344727	4.64461088180542	-867.8468627929688	-0.0	-0.0	-0.0	-0.0	-0.0	-0.0	247186.984375	1910.4844970703125	-3119.35986328125
0.4565	-0.0	-0.0	-0.0	-0.0	-0.0	-0.0	-8.412094116210938	4.681049346923828	-869.1598510742188	-0.0	-0.0	-0.0	-0.0	-0.0	-0.0	247714.09375	2305.07275390625	-3144.022216796875
0.457	-0.0	-0.0	-0.0	-0.0	-0.0	-0.0	-9.033220291137695	3.870940923690796	-869.2070922851562	-0.0	-0.0	-0.0	-0.0	-0.0	-0.0	247549.625	2742.198974609375	-3238.821533203125
0.4575	-0.0	-0.0	-0.0	-0.0	-0.0	-0.0	-9.626352310180664	3.2288520336151123	-868.6544189453125	-0.0	-0.0	-0.0	-0.0	-0.0	-0.0	247029.359375	2897.778564453125	-3190.2412109375
0.458	-0.0	-0.0	-0.0	-0.0	-0.0	-0.0	-9.3297119140625	2.546315670013428	-866.1858520507812	-0.0	-0.0	-0.0	-0.0	-0.0	-0.0	246152.453125	3374.490234375	-3086.006103515625
0.4585	-0.0	-0.0	-0.0	-0.0	-0.0	-0.0	-9.041467666625977	1.7148410081863403	-864.4406127929688	-0.0	-0.0	-0.0	-0.0	-0.0	-0.0	245113.515625	3432.845458984375	-2923.054931640625
0.459	-0.0	-0.0	-0.0	-0.0	-0.0	-0.0	-9.388497352600098	1.030298352241516	-861.5023803710938	-0.0	-0.0	-0.0	-0.0	-0.0	-0.0	244225.046875	3786.216064453125	-2799.799560546875
0.4595	-0.0	-0.0	-0.0	-0.0	-0.0	-0.0	-9.617772102355955	0.331605315208435	-859.5534057617188	-0.0	-0.0	-0.0	-0.0	-0.0	-0.0	243502.90625	4039.784423828125	-2706.183349609375
0.46	-0.0	-0.0	-0.0	-0.0	-0.0	-0.0	-9.669475555419922	0.3018681108951568	-856.9376831054688	-0.0	-0.0	-0.0	-0.0	-0.0	-0.0	242705.25	4051.08251953125	-2679.207763671875
0.4605	-0.0	-0.0	-0.0	-0.0	-0.0	-0.0	-9.758186340332031	-0.4127436280250549	-855.9736938476562	-0.0	-0.0	-0.0	-0.0	-0.0	-0.0	242177.5625	4249.103515625	-2765.800537109375
0.461	-0.0	-0.0	-0.0	-0.0	-0.0	-0.0	-9.884079933166504	-0.780612051486969	-856.0966796875	-0.0	-0.0	-0.0	-0.0	-0.0	-0.0	241868.015625	4058.199951171875	-2689.4248046875
0.4615	-0.0	-0.0	-0.0	-0.0	-0.0	-0.0	-9.211692810058594	-1.37606942653656	-855.184326171875	-0.0	-0.0	-0.0	-0.0	-0.0	-0.0	241838.421875	3614.71875	-2498.680419921875
0.462	-0.0	-0.0	-0.0	-0.0	-0.0	-0.0	-8.833796501159668	-1.4925187826156616	-856.6156616210938	-0.0	-0.0	-0.0	-0.0	-0.0	-0.0	242127.015625	3326.510009765625	-2290.792724609375
0.4625	-0.0	-0.0	-0.0	-0.0	-0.0	-0.0	-7.437709331512451	-1.6363067626953125	-857.994384765625	-0.0	-0.0	-0.0	-0.0	-0.0	-0.0	242187.984375	2941.816162109375	-2018.1796875
0.463	-0.0	-0.0	-0.0	-0.0	-0.0	-0.0	-7.049891471862793	-1.4971468448638916	-859.1697387695312	-0.0	-0.0	-0.0	-0.0	-0.0	-0.0	242702.34375	2271.633056640625	-1750.9200439453125
0.4635	-0.0	-0.0	-0.0	-0.0	-0.0	-0.0	-6.359650135040283	-1.41314697265625	-862.0552978515625	-0.0	-0.0	-0.0	-0.0	-0.0	-0.0	243134.09375	1713.26318359375	-1670.67041015625
0.464	-0.0	-0.0	-0.0	-0.0	-0.0	-0.0	-4.978044033050537	-0.8084815144538879	-863.5459594726562	-0.0	-0.0	-0.0	-0.0	-0.0	-0.0	243091.625	1132.1322021484375	-1444.7332763671875
0.4645	-0.0	-0.0	-0.0	-0.0	-0.0	-0.0	-3.64758825302124	-0.2649650573730469	-864.0968627929688	-0.0	-0.0	-0.0	-0.0	-0.0	-0.0	243422.40625	208.04542541503903	-1125.3592529296875
0.465	-0.0	-0.0	-0.0	-0.0	-0.0	-0.0	-1.8226851224899288	0.6290253400802612	-864.7957763671875	-0.0	-0.0	-0.0	-0.0	-0.0	-0.0	243711.453125	-621.4757080078125	-666.334716796875
